<svg>
  <defs>
    <symbol id="home" xmlns="http://www.w3.org/2000/svg" viewBox="0 -960 960 960" fill="currentColor" className="drop-shadow-2xl">
      <path d="M240-200h147.69v-235.38h184.62V-200H720v-360L480-741.54 240-560v360Zm-40 40v-420l280-211.54L760-580v420H532.31v-235.38H427.69V-160H200Zm280-310.77Z"/>
    </symbol>
    <symbol id="about" xmlns="http://www.w3.org/2000/svg" viewBox="0 -960 960 960" fill="currentColor">
      <path d="M480-504.62q-49.5 0-84.75-35.25T360-624.62q0-49.5 35.25-84.75T480-744.62q49.5 0 84.75 35.25T600-624.62q0 49.5-35.25 84.75T480-504.62ZM200-215.38v-65.85q0-24.77 14.42-46.35 14.43-21.57 38.81-33.5 56.62-27.15 113.31-40.73 56.69-13.57 113.46-13.57 56.77 0 113.46 13.57 56.69 13.58 113.31 40.73 24.38 11.93 38.81 33.5Q760-306 760-281.23v65.85H200Zm40-40h480v-25.85q0-13.31-8.58-25-8.57-11.69-23.73-19.77-49.38-23.92-101.83-36.65-52.45-12.73-105.86-12.73t-105.86 12.73Q321.69-349.92 272.31-326q-15.16 8.08-23.73 19.77-8.58 11.69-8.58 25v25.85Zm240-289.24q33 0 56.5-23.5t23.5-56.5q0-33-23.5-56.5t-56.5-23.5q-33 0-56.5 23.5t-23.5 56.5q0 33 23.5 56.5t56.5 23.5Zm0-80Zm0 369.24Z"/>
    </symbol>
    <symbol id="skills" xmlns="http://www.w3.org/2000/svg" viewBox="0 -960 960 960" fill="currentColor">
      <path d="m354-287 126-76 126 77-33-144 111-96-146-13-58-136-58 135-146 13 111 97-33 143Zm-61 83.92 49.62-212.54-164.93-142.84 217.23-18.85L480-777.69l85.08 200.38 217.23 18.85-164.93 142.84L667-203.08 480-315.92 293-203.08ZM480-470Z"/>
    </symbol>
    <symbol id="achivements" xmlns="http://www.w3.org/2000/svg" viewBox="0 -960 960 960" fill="currentColor">
      <path d="M335.38-160v-40H460v-150.15q-52.85-9.47-92.5-44.2-39.65-34.73-54.58-86.11-63.46-7.46-108.19-52.04T160-640v-40q0-16.08 11.96-28.04T200-720h106.15v-80h347.7v80H760q16.08 0 28.04 11.96T800-680v40q0 62.92-44.73 107.5t-108.19 52.04q-14.93 51.38-54.58 86.11t-92.5 44.2V-200h124.62v40H335.38Zm-29.23-363.38V-680H200v40q0 45.69 30.46 78.5t75.69 38.12ZM480-389.23q55.38 0 93.85-38.46 38.46-38.46 38.46-93.85V-760H347.69v238.46q0 55.39 38.46 93.85 38.47 38.46 93.85 38.46Zm173.85-134.15q45.23-5.31 75.69-38.12Q760-594.31 760-640v-40H653.85v156.62ZM480-574.62Z"/>
    </symbol>
    <symbol id="contact" xmlns="http://www.w3.org/2000/svg" viewBox="0 -960 960 960" fill="currentColor">
      <path d="M289.23-310.77q-13.08 0-21.92-8.84-8.85-8.85-8.85-21.93v-40h470l25.39 25.39V-720h40q13.07 0 21.92 8.85 8.85 8.84 8.85 21.92v501.54L701.54-310.77H289.23Zm-153.85-27.69v-470.77q0-13.08 8.85-21.92 8.85-8.85 21.92-8.85h476.93q13.07 0 21.92 8.85 8.85 8.84 8.85 21.92v316.92q0 13.08-8.85 21.93-8.85 8.84-21.92 8.84H258.46L135.38-338.46Zm498.47-163.08V-800H175.38v353.85l55.39-55.39h403.08Zm-458.47 0V-800v298.46Z"/>
    </symbol>
    <symbol id="phone" viewBox="0 0 512 512" xmlns="http://www.w3.org/2000/svg" fill="currentColor">
      <path d="M511.2 387l-23.25 100.8c-3.266 14.25-15.79 24.22-30.46 24.22C205.2 512 0 306.8 0 54.5c0-14.66 9.969-27.2 24.22-30.45l100.8-23.25C139.7-2.602 154.7 5.018 160.8 18.92l46.52 108.5c5.438 12.78 1.77 27.67-8.98 36.45L144.5 207.1c33.98 69.22 90.26 125.5 159.5 159.5l44.08-53.8c8.688-10.78 23.69-14.51 36.47-8.975l108.5 46.51C506.1 357.2 514.6 372.4 511.2 387z"/>
    </symbol>
    <symbol id="message" viewBox="0 0 24 24" xmlns="http://www.w3.org/2000/svg" fill="currentColor">
      <path d="M20 2H4c-1.103 0-2 .894-2 1.992v12.016C2 17.106 2.897 18 4 18h3v4l6.351-4H20c1.103 0 2-.894 2-1.992V3.992A1.998 1.998 0 0 0 20 2z"/>
    </symbol>
    <symbol id="telegram" viewBox="0 0 448 512" xmlns="http://www.w3.org/2000/svg" fill="currentColor">
      <path d="M446.7 98.6l-67.6 318.8c-5.1 22.5-18.4 28.1-37.3 17.5l-103-75.9-49.7 47.8c-5.5 5.5-10.1 10.1-20.7 10.1l7.4-104.9 190.9-172.5c8.3-7.4-1.8-11.5-12.9-4.1L117.8 284 16.2 252.2c-22.1-6.9-22.5-22.1 4.6-32.7L418.2 66.4c18.4-6.9 34.5 4.1 28.5 32.2z"/>
    </symbol>
  </defs>
</svg>